<svg id="visual" viewBox="0 0 1024 1024" width="1024" height="1024" xmlns="http://www.w3.org/2000/svg" xmlns:xlink="http://www.w3.org/1999/xlink" version="1.1"><path d="M0 584L171 658L341 722L512 778L683 633L853 597L1024 716L1024 1025L853 1025L683 1025L512 1025L341 1025L171 1025L0 1025Z" fill="#f5730a"></path><path d="M0 621L171 734L341 750L512 708L683 644L853 818L1024 673L1024 1025L853 1025L683 1025L512 1025L341 1025L171 1025L0 1025Z" fill="#f8873b"></path><path d="M0 834L171 826L341 802L512 732L683 818L853 745L1024 834L1024 1025L853 1025L683 1025L512 1025L341 1025L171 1025L0 1025Z" fill="#fa9b5e"></path><path d="M0 827L171 819L341 797L512 781L683 823L853 844L1024 793L1024 1025L853 1025L683 1025L512 1025L341 1025L171 1025L0 1025Z" fill="#f9ae80"></path><path d="M0 886L171 887L341 844L512 913L683 799L853 808L1024 891L1024 1025L853 1025L683 1025L512 1025L341 1025L171 1025L0 1025Z" fill="#f6c1a1"></path><path d="M0 898L171 909L341 900L512 891L683 877L853 960L1024 944L1024 1025L853 1025L683 1025L512 1025L341 1025L171 1025L0 1025Z" fill="#f0d3c3"></path><path d="M0 963L171 994L341 941L512 981L683 962L853 922L1024 993L1024 1025L853 1025L683 1025L512 1025L341 1025L171 1025L0 1025Z" fill="#e6e6e6"></path></svg>