<svg id="visual" viewBox="0 0 1024 1024" width="1024" height="1024" xmlns="http://www.w3.org/2000/svg" xmlns:xlink="http://www.w3.org/1999/xlink" version="1.1"><path d="M0 642L24.3 642C48.7 642 97.3 642 146.2 638.7C195 635.3 244 628.7 292.8 647.2C341.7 665.7 390.3 709.3 439 720.3C487.7 731.3 536.3 709.7 585 689.3C633.7 669 682.3 650 731.2 659.2C780 668.3 829 705.7 877.8 712.8C926.7 720 975.3 697 999.7 685.5L1024 674L1024 1025L999.7 1025C975.3 1025 926.7 1025 877.8 1025C829 1025 780 1025 731.2 1025C682.3 1025 633.7 1025 585 1025C536.3 1025 487.7 1025 439 1025C390.3 1025 341.7 1025 292.8 1025C244 1025 195 1025 146.2 1025C97.3 1025 48.7 1025 24.3 1025L0 1025Z" fill="#f7770f"></path><path d="M0 664L24.3 682.3C48.7 700.7 97.3 737.3 146.2 757C195 776.7 244 779.3 292.8 781.7C341.7 784 390.3 786 439 776C487.7 766 536.3 744 585 738.8C633.7 733.7 682.3 745.3 731.2 745.5C780 745.7 829 734.3 877.8 718C926.7 701.7 975.3 680.3 999.7 669.7L1024 659L1024 1025L999.7 1025C975.3 1025 926.7 1025 877.8 1025C829 1025 780 1025 731.2 1025C682.3 1025 633.7 1025 585 1025C536.3 1025 487.7 1025 439 1025C390.3 1025 341.7 1025 292.8 1025C244 1025 195 1025 146.2 1025C97.3 1025 48.7 1025 24.3 1025L0 1025Z" fill="#fc9348"></path><path d="M0 779L24.3 781C48.7 783 97.3 787 146.2 790C195 793 244 795 292.8 786.2C341.7 777.3 390.3 757.7 439 756.5C487.7 755.3 536.3 772.7 585 772C633.7 771.3 682.3 752.7 731.2 757.7C780 762.7 829 791.3 877.8 801C926.7 810.7 975.3 801.3 999.7 796.7L1024 792L1024 1025L999.7 1025C975.3 1025 926.7 1025 877.8 1025C829 1025 780 1025 731.2 1025C682.3 1025 633.7 1025 585 1025C536.3 1025 487.7 1025 439 1025C390.3 1025 341.7 1025 292.8 1025C244 1025 195 1025 146.2 1025C97.3 1025 48.7 1025 24.3 1025L0 1025Z" fill="#ffae75"></path><path d="M0 796L24.3 805.3C48.7 814.7 97.3 833.3 146.2 843.8C195 854.3 244 856.7 292.8 858C341.7 859.3 390.3 859.7 439 852.2C487.7 844.7 536.3 829.3 585 826.3C633.7 823.3 682.3 832.7 731.2 838.8C780 845 829 848 877.8 850.3C926.7 852.7 975.3 854.3 999.7 855.2L1024 856L1024 1025L999.7 1025C975.3 1025 926.7 1025 877.8 1025C829 1025 780 1025 731.2 1025C682.3 1025 633.7 1025 585 1025C536.3 1025 487.7 1025 439 1025C390.3 1025 341.7 1025 292.8 1025C244 1025 195 1025 146.2 1025C97.3 1025 48.7 1025 24.3 1025L0 1025Z" fill="#ffc8a2"></path><path d="M0 932L24.3 919.3C48.7 906.7 97.3 881.3 146.2 875.5C195 869.7 244 883.3 292.8 897.3C341.7 911.3 390.3 925.7 439 920.7C487.7 915.7 536.3 891.3 585 876.3C633.7 861.3 682.3 855.7 731.2 864.5C780 873.3 829 896.7 877.8 905.7C926.7 914.7 975.3 909.3 999.7 906.7L1024 904L1024 1025L999.7 1025C975.3 1025 926.7 1025 877.8 1025C829 1025 780 1025 731.2 1025C682.3 1025 633.7 1025 585 1025C536.3 1025 487.7 1025 439 1025C390.3 1025 341.7 1025 292.8 1025C244 1025 195 1025 146.2 1025C97.3 1025 48.7 1025 24.3 1025L0 1025Z" fill="#ffe4d0"></path><path d="M0 979L24.3 970.8C48.7 962.7 97.3 946.3 146.2 942.7C195 939 244 948 292.8 952.2C341.7 956.3 390.3 955.7 439 951.7C487.7 947.7 536.3 940.3 585 937.7C633.7 935 682.3 937 731.2 935.7C780 934.3 829 929.7 877.8 936.7C926.7 943.7 975.3 962.3 999.7 971.7L1024 981L1024 1025L999.7 1025C975.3 1025 926.7 1025 877.8 1025C829 1025 780 1025 731.2 1025C682.3 1025 633.7 1025 585 1025C536.3 1025 487.7 1025 439 1025C390.3 1025 341.7 1025 292.8 1025C244 1025 195 1025 146.2 1025C97.3 1025 48.7 1025 24.3 1025L0 1025Z" fill="#ffffff"></path></svg>